mtllib scene01.mtl

g default
v -5.763970 0.000000 5.000000
v 5.763970 0.000000 5.000000
v -5.763970 10.000000 5.000000
v 5.763970 10.000000 5.000000
v -5.763970 10.000000 -5.000000
v 5.763970 10.000000 -5.000000
v -5.763970 0.000000 -5.000000
v 5.763970 0.000000 -5.000000
vt 0.375000 0.000000
vt 0.625000 0.000000
vt 0.375000 0.250000
vt 0.625000 0.250000
vt 0.375000 0.500000
vt 0.625000 0.500000
vt 0.375000 0.750000
vt 0.625000 0.750000
vt 0.375000 1.000000
vt 0.625000 1.000000
vt 0.875000 0.000000
vt 0.875000 0.250000
vt 0.125000 0.000000
vt 0.125000 0.250000
vn 0.000000 -1.000000 0.000000
vn 0.000000 -1.000000 0.000000
vn 0.000000 -1.000000 0.000000
vn 0.000000 -1.000000 0.000000
vn 0.000000 0.000000 1.000000
vn 0.000000 0.000000 1.000000
vn 0.000000 0.000000 1.000000
vn 0.000000 0.000000 1.000000
vn 0.000000 1.000000 0.000000
vn 0.000000 1.000000 0.000000
vn 0.000000 1.000000 0.000000
vn 0.000000 1.000000 0.000000
vn -1.000000 0.000000 0.000000
vn -1.000000 0.000000 0.000000
vn -1.000000 0.000000 0.000000
vn -1.000000 0.000000 0.000000
vn 1.000000 0.000000 0.000000
vn 1.000000 0.000000 0.000000
vn 1.000000 0.000000 0.000000
vn 1.000000 0.000000 0.000000
s off
g pCube1Face1
usemtl plain
f 3/3/1 5/5/4 6/6/3 4/4/2
f 5/5/5 7/7/8 8/8/7 6/6/6 
f 7/7/9 1/9/12 2/10/11 8/8/10  
g pCube1Face3
usemtl blue_wall
f 2/2/13 4/4/16 6/12/15 8/11/14 
g pCube1Face2
usemtl red_wall
f 7/13/17 5/14/20 3/3/19 1/1/18  